<svg version="1.1" id="Layer_1" xmlns="http://www.w3.org/2000/svg" xmlns:xlink="http://www.w3.org/1999/xlink" x="0px" y="0px"
	 width="100%" viewBox="0 0 180 85" enable-background="new 0 0 180 85" xml:space="preserve">
<path fill="#010204" opacity="1.000000" stroke="none" 
	d="
M70.000000,86.000000 
	C47.019474,86.000000 24.038948,86.000000 1.029211,86.000000 
	C1.029211,57.710155 1.029211,29.420273 1.029211,1.065195 
	C60.905674,1.065195 120.811440,1.065195 180.858612,1.065195 
	C180.858612,29.214451 180.858612,57.429844 180.858612,86.000000 
	C148.646637,86.000000 116.291977,86.000000 83.177505,85.719345 
	C87.822380,81.052505 89.602722,74.943489 90.273346,66.930756 
	C91.808685,76.659210 92.226044,77.005646 100.856270,77.005714 
	C110.159218,77.005791 119.463676,77.094841 128.763916,76.936195 
	C130.815170,76.901199 132.866486,75.521637 134.891129,75.586914 
	C138.045319,75.688614 141.179504,76.480240 144.317001,77.009995 
	C147.681595,77.578087 150.295059,75.684807 150.728485,72.992004 
	C151.094849,70.715912 149.262939,68.085983 148.403931,65.612648 
	C148.113342,62.430004 149.251297,58.900631 149.824280,55.281807 
	C150.396942,51.665073 150.404373,47.958839 150.665710,44.203743 
	C145.486603,44.203743 140.400742,44.203743 134.916504,44.203743 
	C134.916504,46.557667 134.916504,48.645473 134.916504,50.743416 
	C129.082245,51.713726 122.724350,48.951920 119.026573,54.290272 
	C114.406036,47.610023 107.229401,53.128960 101.989075,50.362114 
	C103.071884,45.965019 100.009659,44.710182 96.582588,44.108818 
	C86.252457,42.296146 82.862297,43.765465 80.434578,50.657597 
	C72.753487,52.365559 64.458160,48.416096 57.116955,53.722832 
	C57.207893,49.506317 56.407177,45.400238 51.387493,45.105736 
	C44.310791,44.690556 37.191540,45.000652 29.862106,45.000652 
	C30.275532,49.625656 31.036058,53.660378 30.869312,57.656410 
	C30.731119,60.968212 30.380951,66.393387 28.590836,67.123985 
	C22.759998,69.503716 25.666140,73.371864 25.144773,76.907005 
	C40.319347,76.907005 55.045063,76.907005 70.000000,76.907005 
	C70.000000,80.356277 70.000000,83.178139 70.000000,86.000000 
M125.741058,27.940182 
	C126.354034,26.414297 126.967010,24.888412 127.579987,23.362526 
	C128.110443,24.139957 128.640884,24.917389 129.171341,25.694818 
	C130.526520,26.435419 131.881683,27.176020 133.236862,27.916616 
	C133.825912,26.529268 134.414978,25.141922 135.004044,23.754578 
	C133.346085,23.075315 131.551132,21.638559 130.064636,21.907381 
	C128.181168,22.247992 126.548370,23.974876 124.937073,24.301311 
	C123.483101,19.753439 120.183685,22.785124 117.176781,22.829765 
	C117.451920,23.210043 117.727058,23.590322 118.606529,24.471207 
	C117.881676,30.116222 117.156830,35.761238 116.418068,41.514591 
	C119.915672,42.800285 121.907677,42.041367 122.533501,37.937664 
	C123.027504,34.698326 124.290123,31.576206 125.741058,27.940182 
M64.992821,23.188150 
	C65.324982,21.460871 65.657143,19.733593 66.027512,17.807621 
	C58.691113,17.807621 51.924908,17.807621 44.729595,17.807621 
	C43.243793,25.488428 41.778385,33.063805 40.261360,40.906013 
	C43.252678,40.906013 45.815861,40.906013 48.492844,40.906013 
	C49.104595,38.096630 49.659737,35.547211 50.310394,32.559151 
	C53.455997,32.559151 56.435692,32.335941 59.365639,32.622116 
	C62.277954,32.906574 63.760616,31.857241 64.544746,29.217495 
	C64.951134,29.479101 65.357529,29.740707 65.785568,30.789396 
	C65.172012,34.121769 64.558456,37.454144 63.942692,40.798546 
	C88.196266,43.532356 91.235916,34.575294 91.581818,17.942862 
	C82.636665,16.845633 73.990746,17.012362 66.312325,24.007502 
	C65.812790,23.985104 65.313263,23.962706 64.992821,23.188150 
M21.835644,40.715134 
	C23.047571,35.249107 24.259499,29.783083 25.470005,24.323467 
	C27.717243,24.323467 29.651150,24.323467 31.815004,24.323467 
	C30.778341,29.942766 29.793709,35.280025 28.756123,40.904324 
	C31.712482,40.904324 34.272148,40.904324 37.012592,40.904324 
	C38.482857,33.103870 39.906174,25.552513 41.340187,17.944391 
	C20.074799,15.959820 15.480694,21.719873 14.183663,41.107216 
	C16.484032,41.107216 18.762335,41.107216 21.835644,40.715134 
M111.278549,29.953457 
	C116.244072,24.698702 116.184952,18.171432 110.634575,16.588459 
	C105.646172,15.165759 100.169243,15.455986 94.907806,14.990628 
	C98.322189,20.262533 94.891617,36.686188 89.568352,41.403595 
	C93.993362,41.403595 98.312881,41.403595 101.369293,41.403595 
	C100.836937,39.015450 100.141251,37.097939 100.037437,35.148907 
	C99.878799,32.170395 102.008141,31.988024 104.394958,31.837576 
	C106.490196,31.705503 108.541595,30.877892 111.278549,29.953457 
M160.995956,30.515141 
	C160.595337,32.471207 160.337479,34.470055 159.766495,36.375061 
	C158.254105,41.421009 159.443130,48.036026 151.269958,49.461803 
	C157.200958,51.915295 161.954681,49.648750 163.777969,43.733204 
	C165.242950,38.980202 166.095093,34.030083 167.070908,29.137861 
	C167.593109,26.519804 168.134583,24.238646 171.612244,24.561449 
	C172.053543,24.602409 172.591629,23.600628 173.438110,22.710478 
	C171.590302,22.145237 170.296768,21.749546 168.352386,21.154766 
	C169.469193,19.027159 170.355194,17.339262 170.887009,16.326117 
	C173.240997,17.368406 174.720764,18.159403 176.298996,18.586842 
	C176.557709,18.656910 177.750381,16.495802 177.667221,16.429815 
	C176.215836,15.278208 174.733215,13.665496 173.057983,13.396879 
	C169.131821,12.767335 165.974762,14.290202 163.977631,18.040520 
	C162.837738,20.181103 161.234619,22.075008 159.840088,24.079981 
	C160.163620,24.028315 160.487152,23.976648 160.810684,23.924982 
	C160.919357,25.854107 161.028015,27.783234 160.995956,30.515141 
M155.125854,32.526897 
	C156.333557,24.282034 152.085632,20.118675 144.444717,22.058416 
	C138.371628,23.600143 133.708466,31.667702 136.168152,37.418770 
	C137.034225,39.443790 139.696899,41.497757 141.892792,42.003448 
	C147.880768,43.382439 152.060272,40.275948 155.125854,32.526897 
M13.151479,28.788925 
	C13.833510,25.250492 14.515541,21.712059 15.242153,17.942335 
	C12.238503,17.942335 9.698612,17.942335 6.996832,17.942335 
	C6.229280,21.931267 5.514381,25.655710 4.795611,29.379408 
	C4.062426,33.177788 3.325432,36.975437 2.556149,40.948792 
	C5.743537,40.948792 8.165037,40.948792 10.782041,40.948792 
	C11.555238,37.044491 12.289503,33.336777 13.151479,28.788925 
z"/>
<path fill="#FFF9F5" opacity="1.000000" stroke="none" 
	d="
M70.463181,86.000000 
	C70.000000,83.178139 70.000000,80.356277 70.000000,76.907005 
	C55.045063,76.907005 40.319347,76.907005 25.144773,76.907005 
	C25.666140,73.371864 22.759998,69.503716 28.590836,67.123985 
	C30.380951,66.393387 30.731119,60.968212 30.869312,57.656410 
	C31.036058,53.660378 30.275532,49.625656 29.862106,45.000652 
	C37.191540,45.000652 44.310791,44.690556 51.387493,45.105736 
	C56.407177,45.400238 57.207893,49.506317 57.116955,53.722832 
	C64.458160,48.416096 72.753487,52.365559 80.434578,50.657597 
	C82.862297,43.765465 86.252457,42.296146 96.582588,44.108818 
	C100.009659,44.710182 103.071884,45.965019 101.989075,50.362114 
	C107.229401,53.128960 114.406036,47.610023 119.026573,54.290272 
	C122.724350,48.951920 129.082245,51.713726 134.916504,50.743416 
	C134.916504,48.645473 134.916504,46.557667 134.916504,44.203743 
	C140.400742,44.203743 145.486603,44.203743 150.665710,44.203743 
	C150.404373,47.958839 150.396942,51.665073 149.824280,55.281807 
	C149.251297,58.900631 148.113342,62.430004 148.403931,65.612648 
	C149.262939,68.085983 151.094849,70.715912 150.728485,72.992004 
	C150.295059,75.684807 147.681595,77.578087 144.317001,77.009995 
	C141.179504,76.480240 138.045319,75.688614 134.891129,75.586914 
	C132.866486,75.521637 130.815170,76.901199 128.763916,76.936195 
	C119.463676,77.094841 110.159218,77.005791 100.856270,77.005714 
	C92.226044,77.005646 91.808685,76.659210 90.273346,66.930756 
	C89.602722,74.943489 87.822380,81.052505 82.708847,85.719345 
	C78.975456,86.000000 74.950912,86.000000 70.463181,86.000000 
M34.473335,49.854389 
	C34.903049,51.244743 35.851967,52.709980 35.664284,54.011292 
	C35.119949,57.785404 34.307743,61.548859 33.236111,65.209785 
	C32.430908,67.960541 31.062614,70.546471 29.897638,73.318459 
	C32.997288,73.318459 36.933945,73.318459 41.347206,73.318459 
	C37.371754,70.033813 37.398422,66.527077 41.481976,62.216232 
	C42.636604,65.175095 43.449280,67.978561 44.786217,70.504547 
	C46.528595,73.796585 49.544273,73.915123 52.499485,73.312439 
	C50.691353,69.399704 49.006157,65.752998 47.306438,62.074871 
	C49.041962,60.886917 50.382717,60.186989 51.453278,59.195362 
	C54.610977,56.270496 54.589977,50.215736 51.009926,49.529408 
	C45.503048,48.473682 39.654816,49.198544 34.473335,49.854389 
M93.096664,48.658424 
	C94.214668,49.509888 95.332680,50.361351 96.450684,51.212811 
	C97.000465,50.477642 98.118492,49.203087 98.011986,49.090881 
	C96.965744,47.988667 95.828125,46.472931 94.503006,46.227623 
	C90.183434,45.427979 86.744530,46.730267 84.760147,51.147881 
	C83.911835,53.036400 82.228508,54.549835 80.917267,56.243172 
	C85.018898,59.225925 80.073410,77.178757 73.660065,81.366791 
	C78.843437,82.719078 82.601685,80.969398 84.480507,75.880768 
	C85.565628,72.941811 85.988792,69.763969 86.808578,66.720215 
	C87.987938,62.341358 86.781357,56.516399 95.210472,55.687397 
	C92.370132,54.582825 91.100891,54.089233 89.018196,53.279301 
	C90.266998,51.425465 91.289795,49.907135 93.096664,48.658424 
M103.131081,54.243557 
	C97.144104,56.234474 94.603004,60.864632 94.096344,66.697945 
	C93.572159,72.733147 97.258560,75.159294 102.839310,72.945396 
	C103.972969,72.495667 105.708130,72.452026 106.722198,73.017311 
	C109.875458,74.775070 112.277931,73.893715 113.462372,72.889046 
	C112.641502,70.157036 111.505394,68.297150 111.681206,66.570877 
	C112.077217,62.682709 113.122948,58.860710 113.918274,54.942833 
	C110.330269,54.643894 107.122726,54.376656 103.131081,54.243557 
M71.895523,54.970501 
	C62.374420,52.599751 54.635975,59.123192 56.064285,68.610397 
	C56.338112,70.429237 58.120411,73.354630 59.390133,73.455223 
	C64.444611,73.855667 69.573181,73.371460 74.669380,73.116249 
	C75.176826,73.090836 75.650703,72.394981 75.140709,72.795815 
	C74.368385,70.098198 73.327660,68.234535 73.435715,66.440048 
	C73.613571,63.486279 74.528961,60.575996 75.145348,57.649891 
	C75.553108,55.714172 75.464905,54.225494 71.895523,54.970501 
M127.940529,54.153095 
	C121.247055,56.405857 117.499474,61.275127 117.905121,67.165276 
	C118.193207,71.348389 120.737854,73.449944 124.598145,73.861961 
	C128.043442,74.229683 131.443436,73.928802 132.866287,69.453949 
	C125.397171,72.191101 124.303581,71.799408 123.547798,66.220139 
	C125.873077,65.585754 128.704575,65.541908 130.457657,64.144852 
	C132.506317,62.512249 133.614182,59.699120 135.130203,57.398163 
	C133.002228,56.288063 130.874268,55.177959 127.940529,54.153095 
M146.209702,72.012344 
	C142.136765,70.720016 142.866013,67.814857 143.582901,64.707329 
	C144.946198,58.797798 146.107758,52.841717 147.405441,46.655476 
	C144.247070,46.655476 141.737579,46.655476 140.087952,46.655476 
	C140.231537,49.252243 140.708008,51.468952 140.396820,53.568939 
	C139.742828,57.982067 138.444672,62.304394 137.879196,66.723915 
	C137.614853,68.790054 137.774155,72.227570 138.925293,72.848358 
	C140.644119,73.775322 143.409012,72.762596 146.209702,72.012344 
z"/>
<path fill="#92ECF5" opacity="1.000000" stroke="none" 
	d="
M67.062180,24.026991 
	C73.990746,17.012362 82.636665,16.845633 91.581818,17.942862 
	C91.235916,34.575294 88.196266,43.532356 63.942692,40.798546 
	C64.558456,37.454144 65.172012,34.121769 65.928467,30.043602 
	C66.401634,27.540869 66.731911,25.783930 67.062180,24.026991 
M79.204155,34.862354 
	C80.629387,31.520842 82.054619,28.179329 83.724731,24.263687 
	C80.132156,24.263687 77.870354,24.263687 75.306084,24.263687 
	C74.648888,27.764561 74.026527,31.079861 73.313927,34.875866 
	C75.448700,34.875866 76.914543,34.875866 79.204155,34.862354 
z"/>
<path fill="#92ECF4" opacity="1.000000" stroke="none" 
	d="
M21.438141,40.911175 
	C18.762335,41.107216 16.484032,41.107216 14.183663,41.107216 
	C15.480694,21.719873 20.074799,15.959820 41.340187,17.944391 
	C39.906174,25.552513 38.482857,33.103870 37.012592,40.904324 
	C34.272148,40.904324 31.712482,40.904324 28.756123,40.904324 
	C29.793709,35.280025 30.778341,29.942766 31.815004,24.323467 
	C29.651150,24.323467 27.717243,24.323467 25.470005,24.323467 
	C24.259499,29.783083 23.047571,35.249107 21.438141,40.911175 
z"/>
<path fill="#8FE6EF" opacity="1.000000" stroke="none" 
	d="
M64.100403,29.024904 
	C63.760616,31.857241 62.277954,32.906574 59.365639,32.622116 
	C56.435692,32.335941 53.455997,32.559151 50.310394,32.559151 
	C49.659737,35.547211 49.104595,38.096630 48.492844,40.906013 
	C45.815861,40.906013 43.252678,40.906013 40.261360,40.906013 
	C41.778385,33.063805 43.243793,25.488428 44.729595,17.807621 
	C51.924908,17.807621 58.691113,17.807621 66.027512,17.807621 
	C65.657143,19.733593 65.324982,21.460871 64.449860,23.582254 
	C59.874062,23.976358 55.841217,23.976358 51.808376,23.976358 
	C51.828724,24.769527 51.849072,25.562695 51.869419,26.355864 
	C54.820347,26.355864 57.773617,26.427414 60.721386,26.330887 
	C62.709644,26.265781 64.388779,26.344963 64.100403,29.024904 
z"/>
<path fill="#0005E3" opacity="1.000000" stroke="none" 
	d="
M110.945450,30.155472 
	C108.541595,30.877892 106.490196,31.705503 104.394958,31.837576 
	C102.008141,31.988024 99.878799,32.170395 100.037437,35.148907 
	C100.141251,37.097939 100.836937,39.015450 101.369293,41.403595 
	C98.312881,41.403595 93.993362,41.403595 89.568352,41.403595 
	C94.891617,36.686188 98.322189,20.262533 94.907806,14.990628 
	C100.169243,15.455986 105.646172,15.165759 110.634575,16.588459 
	C116.184952,18.171432 116.244072,24.698702 110.945450,30.155472 
M105.364899,29.036257 
	C108.898796,26.817570 109.455933,23.604033 107.975349,20.052351 
	C107.574905,19.091751 106.083191,18.461891 104.960258,18.004734 
	C104.636772,17.873041 103.489326,18.782429 103.341286,19.370890 
	C102.660019,22.078901 102.044579,24.828875 101.804535,27.598381 
	C101.762772,28.080296 103.637863,28.728348 105.364899,29.036257 
z"/>
<path fill="#0005E2" opacity="1.000000" stroke="none" 
	d="
M161.066315,30.113750 
	C161.028015,27.783234 160.919357,25.854107 160.810684,23.924982 
	C160.487152,23.976648 160.163620,24.028315 159.840088,24.079981 
	C161.234619,22.075008 162.837738,20.181103 163.977631,18.040520 
	C165.974762,14.290202 169.131821,12.767335 173.057983,13.396879 
	C174.733215,13.665496 176.215836,15.278208 177.667221,16.429815 
	C177.750381,16.495802 176.557709,18.656910 176.298996,18.586842 
	C174.720764,18.159403 173.240997,17.368406 170.887009,16.326117 
	C170.355194,17.339262 169.469193,19.027159 168.352386,21.154766 
	C170.296768,21.749546 171.590302,22.145237 173.438110,22.710478 
	C172.591629,23.600628 172.053543,24.602409 171.612244,24.561449 
	C168.134583,24.238646 167.593109,26.519804 167.070908,29.137861 
	C166.095093,34.030083 165.242950,38.980202 163.777969,43.733204 
	C161.954681,49.648750 157.200958,51.915295 151.269958,49.461803 
	C159.443130,48.036026 158.254105,41.421009 159.766495,36.375061 
	C160.337479,34.470055 160.595337,32.471207 161.066315,30.113750 
z"/>
<path fill="#0005E9" opacity="1.000000" stroke="none" 
	d="
M155.049057,32.904423 
	C152.060272,40.275948 147.880768,43.382439 141.892792,42.003448 
	C139.696899,41.497757 137.034225,39.443790 136.168152,37.418770 
	C133.708466,31.667702 138.371628,23.600143 144.444717,22.058416 
	C152.085632,20.118675 156.333557,24.282034 155.049057,32.904423 
M141.643005,37.501770 
	C143.585678,40.949669 145.983749,39.943054 147.232880,37.379128 
	C148.642487,34.485806 149.275177,31.127331 149.717636,27.898779 
	C149.862793,26.839582 148.550018,24.839277 147.554993,24.572905 
	C146.552948,24.304655 144.346100,25.387592 144.010620,26.347853 
	C142.833832,29.716160 142.235962,33.286728 141.643005,37.501770 
z"/>
<path fill="#92EBF4" opacity="1.000000" stroke="none" 
	d="
M13.087624,29.208996 
	C12.289503,33.336777 11.555238,37.044491 10.782041,40.948792 
	C8.165037,40.948792 5.743537,40.948792 2.556149,40.948792 
	C3.325432,36.975437 4.062426,33.177788 4.795611,29.379408 
	C5.514381,25.655710 6.229280,21.931267 6.996832,17.942335 
	C9.698612,17.942335 12.238503,17.942335 15.242153,17.942335 
	C14.515541,21.712059 13.833510,25.250492 13.087624,29.208996 
z"/>
<path fill="#0005E9" opacity="1.000000" stroke="none" 
	d="
M117.683273,22.535183 
	C120.183685,22.785124 123.483101,19.753439 124.654800,24.910082 
	C124.652138,26.479912 124.931763,27.440969 125.211380,28.402027 
	C124.290123,31.576206 123.027504,34.698326 122.533501,37.937664 
	C121.907677,42.041367 119.915672,42.800285 116.418068,41.514591 
	C117.156830,35.761238 117.881676,30.116222 118.259140,23.854397 
	C117.835587,23.003452 117.759430,22.769318 117.683273,22.535183 
z"/>
<path fill="#0004DB" opacity="1.000000" stroke="none" 
	d="
M125.476219,28.171104 
	C124.931763,27.440969 124.652138,26.479912 124.589996,25.311386 
	C126.548370,23.974876 128.181168,22.247992 130.064636,21.907381 
	C131.551132,21.638559 133.346085,23.075315 135.004044,23.754578 
	C134.414978,25.141922 133.825912,26.529268 133.236862,27.916618 
	C131.881683,27.176020 130.526520,26.435419 129.171341,25.694818 
	C128.640884,24.917389 128.110443,24.139957 127.579987,23.362526 
	C126.967010,24.888412 126.354034,26.414297 125.476219,28.171104 
z"/>
<path fill="#111B1C" opacity="1.000000" stroke="none" 
	d="
M64.322571,29.121201 
	C64.388779,26.344963 62.709644,26.265781 60.721386,26.330887 
	C57.773617,26.427414 54.820347,26.355864 51.869419,26.355864 
	C51.849072,25.562695 51.828724,24.769527 51.808376,23.976358 
	C55.841217,23.976358 59.874062,23.976358 64.360313,23.958334 
	C65.313263,23.962706 65.812790,23.985104 66.687256,24.017246 
	C66.731911,25.783930 66.401634,27.540869 65.917633,29.650059 
	C65.357529,29.740707 64.951134,29.479101 64.322571,29.121201 
z"/>
<path fill="#0004DB" opacity="1.000000" stroke="none" 
	d="
M117.430023,22.682474 
	C117.759430,22.769318 117.835587,23.003452 117.956970,23.604092 
	C117.727058,23.590322 117.451920,23.210043 117.430023,22.682474 
z"/>
<path fill="#FC8618" opacity="1.000000" stroke="none" 
	d="
M34.212376,49.511162 
	C39.654816,49.198544 45.503048,48.473682 51.009926,49.529408 
	C54.589977,50.215736 54.610977,56.270496 51.453278,59.195362 
	C50.382717,60.186989 49.041962,60.886917 47.306438,62.074871 
	C49.006157,65.752998 50.691353,69.399704 52.499485,73.312439 
	C49.544273,73.915123 46.528595,73.796585 44.786217,70.504547 
	C43.449280,67.978561 42.636604,65.175095 41.481976,62.216232 
	C37.398422,66.527077 37.371754,70.033813 41.347206,73.318459 
	C36.933945,73.318459 32.997288,73.318459 29.897638,73.318459 
	C31.062614,70.546471 32.430908,67.960541 33.236111,65.209785 
	C34.307743,61.548859 35.119949,57.785404 35.664284,54.011292 
	C35.851967,52.709980 34.903049,51.244743 34.212376,49.511162 
M46.605118,58.209187 
	C46.933826,56.782871 47.820187,55.184776 47.447384,53.974556 
	C47.000603,52.524189 45.479340,51.404812 44.423389,50.142094 
	C43.451496,51.180851 42.073009,52.063011 41.599072,53.293552 
	C40.806545,55.351295 40.591679,57.631527 39.875820,61.049068 
	C42.651932,60.051449 44.373119,59.432922 46.605118,58.209187 
z"/>
<path fill="#FC871A" opacity="1.000000" stroke="none" 
	d="
M92.704620,48.523613 
	C91.289795,49.907135 90.266998,51.425465 89.018196,53.279301 
	C91.100891,54.089233 92.370132,54.582825 95.210472,55.687397 
	C86.781357,56.516399 87.987938,62.341358 86.808578,66.720215 
	C85.988792,69.763969 85.565628,72.941811 84.480507,75.880768 
	C82.601685,80.969398 78.843437,82.719078 73.660065,81.366791 
	C80.073410,77.178757 85.018898,59.225925 80.917267,56.243172 
	C82.228508,54.549835 83.911835,53.036400 84.760147,51.147881 
	C86.744530,46.730267 90.183434,45.427979 94.503006,46.227623 
	C95.828125,46.472931 96.965744,47.988667 98.011986,49.090881 
	C98.118492,49.203087 97.000465,50.477642 96.450684,51.212814 
	C95.332680,50.361351 94.214668,49.509888 92.704620,48.523613 
z"/>
<path fill="#FC8618" opacity="1.000000" stroke="none" 
	d="
M103.523132,54.176487 
	C107.122726,54.376656 110.330269,54.643894 113.918274,54.942833 
	C113.122948,58.860710 112.077217,62.682709 111.681206,66.570877 
	C111.505394,68.297150 112.641502,70.157036 113.462372,72.889046 
	C112.277931,73.893715 109.875458,74.775070 106.722198,73.017311 
	C105.708130,72.452026 103.972969,72.495667 102.839310,72.945396 
	C97.258560,75.159294 93.572159,72.733147 94.096344,66.697945 
	C94.603004,60.864632 97.144104,56.234474 103.523132,54.176487 
M100.138359,62.841381 
	C100.138359,65.548683 100.138359,68.255981 100.138359,71.508522 
	C105.212799,68.822021 106.119370,67.402344 107.310242,60.525486 
	C107.524574,59.287849 106.969803,57.917027 106.770126,56.607693 
	C105.319565,57.126137 103.598389,57.324348 102.496574,58.255470 
	C101.450058,59.139858 101.051514,60.791008 100.138359,62.841381 
z"/>
<path fill="#FC8517" opacity="1.000000" stroke="none" 
	d="
M72.352722,54.947998 
	C75.464905,54.225494 75.553108,55.714172 75.145348,57.649891 
	C74.528961,60.575996 73.613571,63.486279 73.435715,66.440048 
	C73.327660,68.234535 74.368385,70.098198 75.140709,72.795815 
	C75.650703,72.394981 75.176826,73.090836 74.669380,73.116249 
	C69.573181,73.371460 64.444611,73.855667 59.390133,73.455223 
	C58.120411,73.354630 56.338112,70.429237 56.064285,68.610397 
	C54.635975,59.123192 62.374420,52.599751 72.352722,54.947998 
M69.413055,57.218231 
	C67.698288,57.515408 65.146446,57.224453 64.439934,58.230022 
	C62.884350,60.444092 61.910568,63.245583 61.393772,65.940506 
	C61.106670,67.437637 62.216331,69.202629 62.696465,70.846893 
	C64.080963,69.869408 66.143349,69.183601 66.714523,67.856155 
	C68.071762,64.701843 68.723000,61.243752 69.413055,57.218231 
z"/>
<path fill="#FC8618" opacity="1.000000" stroke="none" 
	d="
M128.343414,54.110474 
	C130.874268,55.177959 133.002228,56.288063 135.130203,57.398163 
	C133.614182,59.699120 132.506317,62.512249 130.457657,64.144852 
	C128.704575,65.541908 125.873077,65.585754 123.547798,66.220139 
	C124.303581,71.799408 125.397171,72.191101 132.866287,69.453949 
	C131.443436,73.928802 128.043442,74.229683 124.598145,73.861961 
	C120.737854,73.449944 118.193207,71.348389 117.905121,67.165276 
	C117.499474,61.275127 121.247055,56.405857 128.343414,54.110474 
M127.823090,56.339714 
	C126.347031,58.339432 124.870972,60.339146 122.703094,63.276119 
	C129.994141,62.355675 131.218704,60.328259 127.823090,56.339714 
z"/>
<path fill="#FC8619" opacity="1.000000" stroke="none" 
	d="
M145.969299,72.293701 
	C143.409012,72.762596 140.644119,73.775322 138.925293,72.848358 
	C137.774155,72.227570 137.614853,68.790054 137.879196,66.723915 
	C138.444672,62.304394 139.742828,57.982067 140.396820,53.568939 
	C140.708008,51.468952 140.231537,49.252243 140.087952,46.655476 
	C141.737579,46.655476 144.247070,46.655476 147.405441,46.655476 
	C146.107758,52.841717 144.946198,58.797798 143.582901,64.707329 
	C142.866013,67.814857 142.136765,70.720016 145.969299,72.293701 
z"/>
<path fill="#0D1415" opacity="1.000000" stroke="none" 
	d="
M78.792274,34.869110 
	C76.914543,34.875866 75.448700,34.875866 73.313927,34.875866 
	C74.026527,31.079861 74.648888,27.764561 75.306084,24.263687 
	C77.870354,24.263687 80.132156,24.263687 83.724731,24.263687 
	C82.054619,28.179329 80.629387,31.520842 78.792274,34.869110 
z"/>
<path fill="#000016" opacity="1.000000" stroke="none" 
	d="
M104.996246,29.167961 
	C103.637863,28.728348 101.762772,28.080296 101.804535,27.598381 
	C102.044579,24.828875 102.660019,22.078901 103.341286,19.370890 
	C103.489326,18.782429 104.636772,17.873041 104.960258,18.004734 
	C106.083191,18.461891 107.574905,19.091751 107.975349,20.052351 
	C109.455933,23.604033 108.898796,26.817570 104.996246,29.167961 
z"/>
<path fill="#000013" opacity="1.000000" stroke="none" 
	d="
M141.530655,37.141136 
	C142.235962,33.286728 142.833832,29.716160 144.010620,26.347853 
	C144.346100,25.387592 146.552948,24.304655 147.554993,24.572905 
	C148.550018,24.839277 149.862793,26.839582 149.717636,27.898779 
	C149.275177,31.127331 148.642487,34.485806 147.232880,37.379128 
	C145.983749,39.943054 143.585678,40.949669 141.530655,37.141136 
z"/>
<path fill="#FFF4EA" opacity="1.000000" stroke="none" 
	d="
M46.349712,58.511795 
	C44.373119,59.432922 42.651932,60.051449 39.875820,61.049068 
	C40.591679,57.631527 40.806545,55.351295 41.599072,53.293552 
	C42.073009,52.063011 43.451496,51.180851 44.423386,50.142094 
	C45.479340,51.404812 47.000603,52.524189 47.447384,53.974556 
	C47.820187,55.184776 46.933826,56.782871 46.349712,58.511795 
z"/>
<path fill="#FFF4EB" opacity="1.000000" stroke="none" 
	d="
M100.253204,62.473190 
	C101.051514,60.791008 101.450058,59.139858 102.496574,58.255470 
	C103.598389,57.324348 105.319565,57.126137 106.770126,56.607693 
	C106.969803,57.917027 107.524574,59.287849 107.310242,60.525486 
	C106.119370,67.402344 105.212799,68.822021 100.138359,71.508522 
	C100.138359,68.255981 100.138359,65.548683 100.253204,62.473190 
z"/>
<path fill="#FFF3E9" opacity="1.000000" stroke="none" 
	d="
M69.536285,57.563316 
	C68.723000,61.243752 68.071762,64.701843 66.714523,67.856155 
	C66.143349,69.183601 64.080963,69.869408 62.696465,70.846893 
	C62.216331,69.202629 61.106670,67.437637 61.393772,65.940506 
	C61.910568,63.245583 62.884350,60.444092 64.439934,58.230022 
	C65.146446,57.224453 67.698288,57.515408 69.536285,57.563316 
z"/>
<path fill="#FFF0E4" opacity="1.000000" stroke="none" 
	d="
M128.203445,56.312614 
	C131.218704,60.328259 129.994141,62.355675 122.703094,63.276119 
	C124.870972,60.339146 126.347031,58.339432 128.203445,56.312614 
z"/>
</svg>