<?xml version="1.0" standalone="no"?>
<!DOCTYPE svg PUBLIC "-//W3C//DTD SVG 20010904//EN"
 "http://www.w3.org/TR/2001/REC-SVG-20010904/DTD/svg10.dtd">
<svg version="1.0" xmlns="http://www.w3.org/2000/svg"
 width="180.000000pt" height="85.000000pt" viewBox="0 0 180.000000 85.000000"
 preserveAspectRatio="xMidYMid meet">

<g transform="translate(0.000000,85.000000) scale(0.100000,-0.100000)"
fill="#000000" stroke="none">
<path d="M1659 725 c-14 -8 -32 -28 -39 -44 -7 -17 -21 -33 -31 -36 -22 -7
-25 -31 -5 -42 13 -7 13 -17 0 -73 -27 -123 -33 -138 -57 -142 -14 -2 -23 -11
-25 -25 -3 -20 1 -23 33 -23 55 0 99 48 115 125 23 118 29 133 53 137 30 4 37
48 8 48 -23 0 -26 7 -12 28 7 11 9 10 15 -3 8 -21 45 -16 60 8 9 15 7 22 -13
38 -27 22 -65 24 -102 4z"/>
<path d="M930 710 c0 -6 -34 -10 -83 -10 -75 0 -88 -3 -130 -30 -57 -36 -60
-36 -52 -9 5 14 2 25 -6 30 -8 5 -100 8 -206 8 -191 0 -191 0 -235 -28 -23
-15 -48 -30 -54 -34 -8 -5 -11 4 -10 26 1 31 0 32 -43 35 -24 2 -48 -1 -53 -6
-11 -11 -58 -243 -51 -254 2 -4 52 -7 111 -5 l106 2 16 80 c12 63 20 81 34 83
17 4 18 0 12 -34 -4 -22 -9 -60 -13 -86 l-6 -47 111 0 111 0 8 42 9 42 61 3
61 3 -5 -46 -6 -45 88 0 c85 0 91 1 141 36 51 35 52 36 68 116 9 45 18 83 21
86 18 18 11 -41 -20 -174 -3 -12 -14 -24 -25 -27 -11 -3 -20 -12 -20 -21 0
-14 11 -16 77 -14 65 3 78 6 81 21 2 10 -3 17 -13 17 -12 0 -15 7 -13 27 3 24
9 28 48 35 34 6 53 16 78 44 17 21 35 35 38 31 4 -3 -1 -38 -10 -78 -23 -100
-22 -101 21 -97 35 3 37 5 53 63 9 33 22 71 29 84 13 23 14 24 27 7 8 -12 22
-17 36 -14 22 4 23 2 20 -48 -5 -70 17 -94 87 -94 40 0 54 5 79 28 55 52 62
155 12 182 -45 24 -138 2 -155 -37 -7 -15 -9 -13 -14 12 l-6 30 -95 2 c-87 3
-96 5 -115 28 -11 13 -33 29 -48 35 -36 13 -157 13 -157 0z m-790 -37 c0 -5
-10 -56 -21 -115 l-22 -108 -38 0 c-46 0 -46 -4 -19 125 11 53 20 99 20 101 0
2 18 4 40 4 22 0 40 -3 40 -7z m260 -3 c0 -5 -9 -56 -20 -112 -11 -57 -20
-104 -20 -105 0 -2 -18 -3 -40 -3 -46 0 -45 -1 -25 90 8 36 14 68 15 73 0 4
-15 7 -34 7 -31 0 -34 -3 -41 -37 -25 -137 -23 -133 -67 -133 l-40 0 7 38 c23
125 25 131 68 162 38 26 50 29 120 30 43 0 77 -4 77 -10z m246 -6 c-3 -9 -6
-22 -6 -30 0 -11 -15 -14 -64 -14 -36 0 -68 -4 -71 -10 -4 -6 18 -10 60 -10
l66 0 -3 -27 c-3 -27 -6 -28 -68 -33 l-65 -5 -9 -42 c-10 -42 -11 -43 -51 -43
l-42 0 23 113 c12 61 23 113 23 115 1 1 49 2 107 2 93 0 105 -2 100 -16z m264
8 c0 -12 -20 -124 -26 -144 -3 -10 -25 -31 -49 -48 -40 -27 -51 -30 -124 -30
-45 0 -81 1 -81 3 0 1 7 37 15 80 8 43 15 80 15 82 0 2 19 17 43 34 38 27 49
30 125 31 45 0 82 -4 82 -8z m150 -21 c13 -25 -3 -71 -26 -71 -13 0 -15 6 -10
31 3 17 6 38 6 45 0 20 18 17 30 -5z m415 -64 c8 -31 -16 -101 -36 -105 -23
-4 -30 20 -17 65 17 63 43 82 53 40z"/>
<path d="M736 583 c-4 -21 -9 -46 -12 -55 -4 -15 1 -18 34 -18 40 0 40 0 51
50 6 28 11 53 11 55 0 3 -17 5 -39 5 -37 0 -39 -2 -45 -37z m64 0 c0 -38 -13
-63 -31 -63 -15 0 -19 7 -19 33 0 38 6 47 32 47 11 0 18 -7 18 -17z"/>
</g>
</svg>
